<?xml version="1.0" encoding="UTF-8" standalone="no"?>
<!-- Created with Inkscape (http://www.inkscape.org/) -->

<svg
   xmlns:dc="http://purl.org/dc/elements/1.1/"
   xmlns:cc="http://creativecommons.org/ns#"
   xmlns:rdf="http://www.w3.org/1999/02/22-rdf-syntax-ns#"
   xmlns:svg="http://www.w3.org/2000/svg"
   xmlns="http://www.w3.org/2000/svg"
   xmlns:sodipodi="http://sodipodi.sourceforge.net/DTD/sodipodi-0.dtd"
   xmlns:inkscape="http://www.inkscape.org/namespaces/inkscape"
   width="210mm"
   height="297mm"
   viewBox="0 0 744.09448819 1052.3622047"
   id="svg2"
   version="1.1"
   inkscape:version="0.91 r13725"
   sodipodi:docname="drawing.svg">
  <defs
     id="defs4" />
  <sodipodi:namedview
     id="base"
     pagecolor="#ffffff"
     bordercolor="#666666"
     borderopacity="1.0"
     inkscape:pageopacity="0.0"
     inkscape:pageshadow="2"
     inkscape:zoom="0.7"
     inkscape:cx="-498.95442"
     inkscape:cy="360.03126"
     inkscape:document-units="px"
     inkscape:current-layer="layer1"
     showgrid="false"
     inkscape:window-width="1920"
     inkscape:window-height="1018"
     inkscape:window-x="-8"
     inkscape:window-y="-8"
     inkscape:window-maximized="1" />
  <metadata
     id="metadata7">
    <rdf:RDF>
      <cc:Work
         rdf:about="">
        <dc:format>image/svg+xml</dc:format>
        <dc:type
           rdf:resource="http://purl.org/dc/dcmitype/StillImage" />
        <dc:title />
      </cc:Work>
    </rdf:RDF>
  </metadata>
  <g
     inkscape:label="Capa 1"
     inkscape:groupmode="layer"
     id="layer1">
    <path
       style="fill:#ffff00;fill-rule:evenodd;stroke:none;stroke-width:1px;stroke-linecap:butt;stroke-linejoin:miter;stroke-opacity:1"
       d="m 492.3885,118.99996 c -20.48069,5.92603 -20.7049,33.02929 -20.71429,60.35714 2.07369,15.62982 1.86197,34.00949 7.5,47.85715 7.97539,3.72659 14.29932,2.84036 22.07245,8.66556 7.50179,5.62185 13.54302,15.05538 26.49898,19.54872 18.28789,-1.88928 11.91798,-31.83029 31.78572,-40.35714 17.03564,-7.50399 30.00093,9.83346 42.85714,22.14286 10.78263,13.19017 18.38152,20.61332 25.35714,21.42856 16.04561,6.76269 19.90507,-23.88773 26.78572,-36.42857 23.43864,-8.13898 26.90406,-19.22196 25.35714,-51.07143 5.39842,0.7783 12.48112,-0.68912 23.57143,-7.5 5.46525,-3.64083 8.85148,-8.31411 12.5,-12.85714 2.64928,-7.2619 1.99026,-14.52381 -1.07143,-21.78571 -5.47619,-7.74541 -10.95238,-6.64631 -16.42857,-7.14286 -9.51334,-1.52668 -18.86167,-2.72334 -29.28571,-6.07143 -5.68132,-6.60074 -8.11987,-6.71593 -11.07143,-7.85714 -2.61905,2.32678 -5.2381,3.01389 -7.85715,10.71428 -3.54043,8.21429 -4.00917,16.42857 -11.78571,24.64286 -1.59476,3.76239 -6.99161,3.72268 -14.28572,1.78572 -4.88918,-2.4556 -15.66474,-14.34641 -25,-23.92858 -14.09044,-11.47735 -19.75815,-24.262973 -38.57142,-19.64285 -17.52394,6.66025 -15.9079,29.21711 -29.64286,40.35714 -15.01511,3.17079 -28.98832,-26.15155 -38.57143,-22.85714 z"
       id="path4147-1"
       inkscape:connector-curvature="0"
       sodipodi:nodetypes="cccsccccccccccccccccccc"
       inkscape:export-xdpi="200"
       inkscape:export-ydpi="200" />
    <path
       style="fill:#ffffff;fill-rule:evenodd;stroke:#000000;stroke-width:1px;stroke-linecap:butt;stroke-linejoin:miter;stroke-opacity:1"
       d="m 487.02981,391.294 c -20.48069,5.92603 -20.7049,33.02929 -20.71429,60.35714 2.07369,15.62982 1.86197,34.00949 7.5,47.85715 7.97539,3.72659 14.29932,2.84036 22.07245,8.66556 7.50179,5.62185 13.54302,15.05538 26.49898,19.54872 18.28789,-1.88928 11.91798,-31.83029 31.78572,-40.35714 17.03564,-7.50399 30.00093,9.83346 42.85714,22.14286 10.78263,13.19017 18.38152,20.61332 25.35714,21.42856 16.04561,6.76269 19.90507,-23.88773 26.78572,-36.42857 23.43864,-8.13898 26.90406,-19.22196 25.35714,-51.07143 5.39842,0.7783 12.48112,-0.68912 23.57143,-7.5 5.46525,-3.64083 8.85148,-8.31411 12.5,-12.85714 2.64928,-7.2619 1.99026,-14.52381 -1.07143,-21.78571 -5.47619,-7.74541 -10.95238,-6.64631 -16.42857,-7.14286 -9.51334,-1.52668 -18.86167,-2.72334 -29.28571,-6.07143 -5.68132,-6.60074 -8.11987,-6.71593 -11.07143,-7.85714 -2.61905,2.32678 -5.2381,3.01389 -7.85715,10.71428 -3.54043,8.21429 -4.00917,16.42857 -11.78571,24.64286 -1.59476,3.76239 -6.99161,3.72268 -14.28572,1.78572 -4.88918,-2.4556 -15.66474,-14.34641 -25,-23.92858 -14.09044,-11.47735 -19.75815,-24.26297 -38.57142,-19.64285 -17.52394,6.66025 -15.9079,29.21711 -29.64286,40.35714 -15.01511,3.17079 -28.98832,-26.15155 -38.57143,-22.85714 z"
       id="path4147-1-9"
       inkscape:connector-curvature="0"
       sodipodi:nodetypes="cccsccccccccccccccccccc"
       inkscape:export-xdpi="200"
       inkscape:export-ydpi="200" />
    <path
       style="fill:#008000;fill-rule:evenodd;stroke:none;stroke-width:1px;stroke-linecap:butt;stroke-linejoin:miter;stroke-opacity:1"
       d="m 142.02981,623.43685 c -20.48069,5.92603 -20.7049,33.02929 -20.71429,60.35714 2.07369,15.62982 1.86197,34.00949 7.5,47.85715 7.97539,3.72659 14.29932,2.84036 22.07245,8.66556 7.50179,5.62185 13.54302,15.05538 26.49898,19.54872 18.28789,-1.88928 11.91798,-31.83029 31.78572,-40.35714 17.03564,-7.50399 30.00093,9.83346 42.85714,22.14286 10.78263,13.19017 18.38152,20.61332 25.35714,21.42856 16.04561,6.76269 19.90507,-23.88773 26.78572,-36.42857 23.43864,-8.13898 26.90406,-19.22196 25.35714,-51.07143 5.39842,0.7783 12.48112,-0.68912 23.57143,-7.5 5.46525,-3.64083 8.85148,-8.31411 12.5,-12.85714 2.64928,-7.2619 1.99026,-14.52381 -1.07143,-21.78571 -5.47619,-7.74541 -10.95238,-6.64631 -16.42857,-7.14286 -9.51334,-1.52668 -18.86167,-2.72334 -29.28571,-6.07143 -5.68132,-6.60074 -8.11987,-6.71593 -11.07143,-7.85714 -2.61905,2.32678 -5.2381,3.01389 -7.85715,10.71428 -3.54043,8.21429 -4.00917,16.42857 -11.78571,24.64286 -1.59476,3.76239 -6.99161,3.72268 -14.28572,1.78572 -4.88918,-2.4556 -15.66474,-14.34641 -25,-23.92858 -14.09044,-11.47735 -19.75815,-24.26297 -38.57142,-19.64285 -17.52394,6.66025 -15.9079,29.21711 -29.64286,40.35714 -15.01511,3.17079 -28.98832,-26.15155 -38.57143,-22.85714 z"
       id="path4147-1-7"
       inkscape:connector-curvature="0"
       sodipodi:nodetypes="cccsccccccccccccccccccc"
       inkscape:export-xdpi="200"
       inkscape:export-ydpi="200" />
    <path
       style="fill:#5599ff;fill-rule:evenodd;stroke:none;stroke-width:1px;stroke-linecap:butt;stroke-linejoin:miter;stroke-opacity:1"
       d="m 107.02981,79.151131 c -20.480695,5.92603 -20.704905,33.029289 -20.714295,60.357139 2.07369,15.62982 1.86197,34.00949 7.5,47.85715 7.975395,3.72659 14.299325,2.84036 22.072455,8.66556 7.50179,5.62185 13.54302,15.05538 26.49898,19.54872 18.28789,-1.88928 11.91798,-31.83029 31.78572,-40.35714 17.03564,-7.50399 30.00093,9.83346 42.85714,22.14286 10.78263,13.19017 18.38152,20.61332 25.35714,21.42856 16.04561,6.76269 19.90507,-23.88773 26.78572,-36.42857 23.43864,-8.13898 26.90406,-19.22196 25.35714,-51.07143 5.39842,0.7783 12.48112,-0.68912 23.57143,-7.5 5.46525,-3.64083 8.85148,-8.31411 12.5,-12.85714 2.64928,-7.2619 1.99026,-14.523809 -1.07143,-21.785709 -5.47619,-7.74541 -10.95238,-6.64631 -16.42857,-7.14286 -9.51334,-1.52668 -18.86167,-2.72334 -29.28571,-6.07143 -5.68132,-6.60074 -8.11987,-6.71593 -11.07143,-7.85714 -2.61905,2.32678 -5.2381,3.01389 -7.85715,10.71428 -3.54043,8.21429 -4.00917,16.42857 -11.78571,24.642859 -1.59476,3.76239 -6.99161,3.72268 -14.28572,1.78572 -4.88918,-2.4556 -15.66474,-14.346409 -25,-23.928579 -14.09044,-11.47735 -19.75815,-24.26297 -38.57142,-19.64285 -17.52394,6.66025 -15.9079,29.21711 -29.64286,40.357139 -15.01511,3.17079 -28.98832,-26.151549 -38.57143,-22.857139 z"
       id="path4147-1-7-0"
       inkscape:connector-curvature="0"
       sodipodi:nodetypes="cccsccccccccccccccccccc"
       inkscape:export-xdpi="200"
       inkscape:export-ydpi="200" />
    <path
       style="fill:#ff6600;fill-rule:evenodd;stroke:none;stroke-width:1px;stroke-linecap:butt;stroke-linejoin:miter;stroke-opacity:1"
       d="m 103.96346,284.12649 c -20.480693,5.92603 -20.704903,33.02929 -20.714293,60.35714 2.07369,15.62982 1.86197,34.00949 7.5,47.85715 7.97539,3.72659 14.299323,2.84036 22.072453,8.66556 7.50179,5.62185 13.54302,15.05538 26.49898,19.54872 18.28789,-1.88928 11.91798,-31.83029 31.78572,-40.35714 17.03564,-7.50399 30.00093,9.83346 42.85714,22.14286 10.78263,13.19017 18.38152,20.61332 25.35714,21.42856 16.04561,6.76269 19.90507,-23.88773 26.78572,-36.42857 23.43864,-8.13898 26.90406,-19.22196 25.35714,-51.07143 5.39842,0.7783 12.48112,-0.68912 23.57143,-7.5 5.46525,-3.64083 8.85148,-8.31411 12.5,-12.85714 2.64928,-7.2619 1.99026,-14.52381 -1.07143,-21.78571 -5.47619,-7.74541 -10.95238,-6.64631 -16.42857,-7.14286 -9.51334,-1.52668 -18.86167,-2.72334 -29.28571,-6.07143 -5.68132,-6.60074 -8.11987,-6.71593 -11.07143,-7.85714 -2.61905,2.32678 -5.2381,3.01389 -7.85715,10.71428 -3.54043,8.21429 -4.00917,16.42857 -11.78571,24.64286 -1.59476,3.76239 -6.99161,3.72268 -14.28572,1.78572 -4.88918,-2.4556 -15.66474,-14.34641 -25,-23.92858 -14.09044,-11.47735 -19.75815,-24.26297 -38.57142,-19.64285 -17.52394,6.66025 -15.9079,29.21711 -29.64286,40.35714 -15.01511,3.17079 -28.98832,-26.15155 -38.57143,-22.85714 z"
       id="path4147-1-7-0-6"
       inkscape:connector-curvature="0"
       sodipodi:nodetypes="cccsccccccccccccccccccc"
       inkscape:export-xdpi="200"
       inkscape:export-ydpi="200" />
    <path
       style="color:#000000;font-style:normal;font-variant:normal;font-weight:normal;font-stretch:normal;font-size:medium;line-height:normal;font-family:sans-serif;text-indent:0;text-align:start;text-decoration:none;text-decoration-line:none;text-decoration-style:solid;text-decoration-color:#000000;letter-spacing:normal;word-spacing:normal;text-transform:none;direction:ltr;block-progression:tb;writing-mode:lr-tb;baseline-shift:baseline;text-anchor:start;white-space:normal;clip-rule:nonzero;display:inline;overflow:visible;visibility:visible;opacity:0.9;isolation:auto;mix-blend-mode:normal;color-interpolation:sRGB;color-interpolation-filters:linearRGB;solid-color:#000000;solid-opacity:1;fill:#2b2200;fill-opacity:1;fill-rule:nonzero;stroke:#2b2200;stroke-width:16;stroke-linecap:butt;stroke-linejoin:round;stroke-miterlimit:4;stroke-dasharray:none;stroke-dashoffset:0;stroke-opacity:1;color-rendering:auto;image-rendering:auto;shape-rendering:auto;text-rendering:auto;enable-background:accumulate"
       d="m 69.775391,782.05469 c -0.22706,0.15156 -0.382295,0.38935 -0.429688,0.6582 -0.267793,-0.0516 -0.545058,0.008 -0.767578,0.16602 -24.457528,17.34211 -32.541892,54.81872 -18.283203,84.08398 7.129344,14.63263 24.274436,21.65053 37.044364,25.7288 12.769934,4.07827 26.875114,2.33323 39.201174,-6.14258 24.65213,-16.95162 34.58088,-51.44174 20.65123,-80.92997 -6.96483,-14.74411 -18.28183,-24.80028 -31.00391,-29.08203 -13.39027,-4.45448 -36.069386,-1.22113 -46.412389,5.51758 z m 31.703409,-5.84571 c 4.77047,-0.0702 9.50847,0.68928 14.07031,2.22461 12.16492,4.09424 23.0763,13.73347 29.83398,28.03907 13.51536,28.6112 3.71617,62.13554 -19.97739,78.42801 -11.84678,8.14624 -25.25067,9.78563 -37.458992,5.88672 -12.208319,-3.89891 -28.93879,-10.50645 -35.854911,-24.70145 -13.642361,-28.00029 -6.052971,-63.86437 16.714844,-80.83985 9.943398,-6.13994 21.001833,-8.78379 32.672159,-9.03711 z"
       id="path4142"
       inkscape:connector-curvature="0"
       sodipodi:nodetypes="cccsssscccssssscc"
       inkscape:export-xdpi="200"
       inkscape:export-ydpi="200" />
  </g>
</svg>
